<svg id="Layer_1" data-name="Layer 1" xmlns="http://www.w3.org/2000/svg" viewBox="0 0 98 122">
  <title>report</title>
  <path id="frame" fill="none" d="M83.6 122.9h-76.7a6.9 6.9 0 0 1 -6.9 -6.9v-109.1a6.8 6.8 0 0 1 2 -4.9a6.8 6.8 0 0 1 4.9 -2h84.6a6.9 6.9 0 0 1 6.9 6.9v86.2h0v10.4h0v19.4z M92.5 117v-13.7h0v-96.4h0a1 1 0 0 0 -0.3 -0.7a1 1 0 0 0 -0.7 -0.3h-84.6a0.9 0.9 0 0 0 -1 1v109.1h0a1 1 0 0 0 0.3 0.7a1 1 0 0 0 0.7 0.3h85.6z" /> -->
  <g id="bars-vertical" fill="#F4F1BB">
    <path d="M19 104v-6.1h36.1v6.1h-36.1z" />
    <path d="M19 87.5v-6.1h55.4v6.1l-55.4 0z" />
  </g>
  <g id="bars-horizontal" fill="#F4F1BB">
    <path d="M74.3 64v6.1h-8.7v-6.1z" />
    <path d="M58.8 58.6v11.5h-8.7v-11.5z" />
    <path d="M43.2 42.1v28h-8.7v-28z" />
    <path d="M27.7 30.6v39.5h-8.7v-39.5z" />
  </g>
  <g id="circle" fill="#F4F1BB">
    <path d="M69.1 30.9l14.1 0.1a14.1 14.1 0 0 1 -4.2 10a14.3 14.3 0 0 1 -2 1.6l-7.9 -11.7z" />
    <path d="M67.7 28.1l-0.8 -15a0.5 0.5 0 0 1 0.5 -0.6c3.9 -0.4 8.5 1.5 11.3 4.1a15.6 15.6 0 0 1 5 10.4a0.5 0.5 0 0 1 -0.5 0.6l-15 1.1a0.5 0.5 0 0 1 -0.6 -0.5a0.1 0.1 0 0 0 0 0z M69.3 27l12.3 -1.1c-0.9 -6.6 -5.8 -11.4 -13 -12l0.7 13.1z" />
    <path d="M66 30.2l7.5 13a15.1 15.1 0 1 1 -9.7 -28l2.2 15z" />
  </g>
</svg>